<svg width="358" height="412" viewBox="0 0 358 412" fill="none" xmlns="http://www.w3.org/2000/svg">
<circle cx="131" cy="165" r="102" fill="#0F60FF"/>
<circle cx="246" cy="248" r="83" fill="#0FB7FF"/>
<circle cx="131" cy="303" r="62" fill="#1EB564"/>
<path opacity="0.8" d="M106.568 284V274.601H108.531L111.177 282.076L113.861 274.601H115.811V284H114.388V276.512L111.788 284H110.572L107.985 276.57V284H106.568ZM119.524 284.13C119.091 284.13 118.705 284.052 118.367 283.896C118.034 283.74 117.771 283.515 117.581 283.22C117.39 282.925 117.295 282.57 117.295 282.154C117.295 281.409 117.559 280.852 118.088 280.483C118.616 280.115 119.459 279.92 120.616 279.898L121.721 279.866V279.378C121.721 278.993 121.606 278.689 121.377 278.468C121.147 278.247 120.794 278.139 120.317 278.143C119.958 278.143 119.637 278.226 119.355 278.39C119.078 278.555 118.896 278.826 118.809 279.203H117.6C117.626 278.757 117.754 278.382 117.984 278.078C118.218 277.771 118.538 277.539 118.946 277.383C119.353 277.227 119.832 277.149 120.382 277.149C120.993 277.149 121.496 277.233 121.89 277.402C122.285 277.567 122.577 277.81 122.768 278.13C122.963 278.451 123.06 278.841 123.06 279.3V284H121.884L121.773 282.765C121.522 283.281 121.203 283.638 120.818 283.837C120.436 284.033 120.005 284.13 119.524 284.13ZM119.96 283.161C120.172 283.161 120.382 283.125 120.59 283.051C120.798 282.973 120.987 282.869 121.156 282.739C121.325 282.605 121.459 282.455 121.559 282.29C121.663 282.126 121.717 281.957 121.721 281.783V280.672L120.811 280.691C120.348 280.696 119.953 280.743 119.628 280.834C119.308 280.925 119.061 281.066 118.887 281.257C118.718 281.448 118.634 281.701 118.634 282.017C118.634 282.377 118.759 282.659 119.011 282.862C119.262 283.062 119.578 283.161 119.96 283.161ZM130.82 284H129.377L127.355 280.756L126.146 282.011V284H124.755V274.341H126.146V280.483L129.117 277.279H130.677L128.246 279.872L130.82 284ZM132.632 280.964C132.632 281.367 132.697 281.729 132.827 282.05C132.962 282.366 133.163 282.618 133.432 282.804C133.7 282.986 134.034 283.077 134.433 283.077C134.831 283.077 135.176 282.986 135.466 282.804C135.761 282.622 135.954 282.351 136.045 281.991H137.332C137.254 282.451 137.07 282.841 136.779 283.161C136.493 283.482 136.147 283.725 135.739 283.889C135.332 284.05 134.905 284.13 134.459 284.13C133.822 284.13 133.261 283.994 132.775 283.72C132.29 283.443 131.911 283.049 131.638 282.537C131.369 282.026 131.235 281.417 131.235 280.711C131.235 280.013 131.358 279.398 131.605 278.865C131.852 278.328 132.21 277.907 132.678 277.604C133.146 277.301 133.709 277.149 134.368 277.149C135.018 277.149 135.564 277.288 136.006 277.565C136.452 277.842 136.79 278.232 137.02 278.735C137.249 279.233 137.364 279.823 137.364 280.503V280.964H132.632ZM132.632 280.061H136.038C136.038 279.71 135.978 279.391 135.856 279.105C135.735 278.815 135.549 278.588 135.297 278.423C135.05 278.254 134.738 278.169 134.361 278.169C133.976 278.169 133.655 278.263 133.399 278.449C133.144 278.635 132.951 278.874 132.821 279.164C132.695 279.454 132.632 279.753 132.632 280.061ZM142.008 280.113V281.172L138.641 281.185V280.119L142.008 280.113ZM145.958 284.13C145.62 284.126 145.297 284.076 144.989 283.98C144.682 283.885 144.407 283.742 144.164 283.551C143.926 283.361 143.735 283.125 143.592 282.843C143.453 282.561 143.384 282.234 143.384 281.861V277.279H144.781V281.712C144.781 282.115 144.907 282.442 145.158 282.693C145.41 282.945 145.789 283.07 146.296 283.07C146.755 283.07 147.124 282.951 147.401 282.713C147.678 282.47 147.817 282.117 147.817 281.653V277.279H149.201V284H148.122L147.966 282.7C147.888 283.051 147.748 283.333 147.544 283.545C147.345 283.753 147.106 283.905 146.829 284C146.556 284.091 146.266 284.134 145.958 284.13ZM150.807 286.093V277.279H152.198L152.211 278.397C152.293 278.25 152.4 278.104 152.53 277.961C152.66 277.814 152.813 277.68 152.991 277.558C153.173 277.433 153.379 277.333 153.609 277.259C153.843 277.186 154.1 277.149 154.382 277.149C154.911 277.149 155.377 277.272 155.78 277.519C156.187 277.762 156.503 278.137 156.729 278.644C156.958 279.147 157.073 279.786 157.073 280.561C157.073 281.341 156.958 281.996 156.729 282.524C156.503 283.053 156.18 283.454 155.76 283.727C155.34 283.996 154.841 284.13 154.265 284.13C153.988 284.13 153.739 284.091 153.518 284.013C153.297 283.935 153.102 283.833 152.933 283.707C152.764 283.577 152.618 283.439 152.497 283.291C152.38 283.14 152.283 282.99 152.205 282.843V286.093H150.807ZM153.973 283.07C154.488 283.07 154.911 282.871 155.24 282.472C155.574 282.069 155.741 281.441 155.741 280.587C155.741 279.855 155.587 279.277 155.279 278.852C154.976 278.423 154.54 278.208 153.973 278.208C153.388 278.208 152.946 278.432 152.647 278.878C152.348 279.32 152.198 279.89 152.198 280.587C152.198 281.042 152.263 281.458 152.393 281.835C152.527 282.208 152.727 282.507 152.991 282.732C153.255 282.958 153.583 283.07 153.973 283.07Z" fill="white"/>
<path opacity="0.5" d="M109.585 332V322.601H112.841C113.513 322.601 114.113 322.716 114.642 322.945C115.175 323.175 115.593 323.513 115.896 323.959C116.204 324.406 116.358 324.954 116.358 325.604C116.358 326.228 116.217 326.761 115.935 327.203C115.658 327.641 115.268 327.976 114.765 328.21C114.267 328.44 113.688 328.555 113.03 328.555H111.002V332H109.585ZM110.995 327.417H112.991C113.589 327.417 114.076 327.246 114.453 326.904C114.83 326.557 115.019 326.098 115.019 325.526C115.019 324.945 114.824 324.501 114.434 324.193C114.044 323.881 113.545 323.725 112.939 323.725H110.995V327.417ZM118.23 328.964C118.23 329.367 118.295 329.729 118.425 330.05C118.56 330.366 118.761 330.618 119.03 330.804C119.299 330.986 119.632 331.077 120.031 331.077C120.43 331.077 120.774 330.986 121.064 330.804C121.359 330.622 121.552 330.351 121.643 329.991H122.93C122.852 330.451 122.668 330.841 122.377 331.161C122.091 331.482 121.745 331.725 121.337 331.889C120.93 332.05 120.503 332.13 120.057 332.13C119.42 332.13 118.859 331.994 118.373 331.72C117.888 331.443 117.509 331.049 117.236 330.537C116.967 330.026 116.833 329.417 116.833 328.711C116.833 328.013 116.956 327.398 117.203 326.865C117.45 326.328 117.808 325.907 118.276 325.604C118.744 325.301 119.307 325.149 119.966 325.149C120.616 325.149 121.162 325.288 121.604 325.565C122.05 325.842 122.388 326.232 122.618 326.735C122.848 327.233 122.962 327.823 122.962 328.503V328.964H118.23ZM118.23 328.061H121.636C121.636 327.71 121.576 327.391 121.454 327.105C121.333 326.815 121.147 326.588 120.895 326.423C120.648 326.254 120.336 326.169 119.959 326.169C119.574 326.169 119.253 326.263 118.997 326.449C118.742 326.635 118.549 326.874 118.419 327.164C118.293 327.454 118.23 327.753 118.23 328.061ZM124.255 332V325.279H125.588V326.657C125.7 326.328 125.856 326.052 126.056 325.831C126.259 325.606 126.496 325.437 126.764 325.324C127.033 325.207 127.317 325.149 127.616 325.149C127.707 325.149 127.793 325.155 127.876 325.169C127.958 325.177 128.023 325.194 128.071 325.22V326.559C128.014 326.533 127.941 326.516 127.85 326.507C127.763 326.499 127.687 326.492 127.622 326.488C127.328 326.466 127.059 326.481 126.816 326.533C126.574 326.585 126.363 326.672 126.186 326.793C126.012 326.915 125.878 327.073 125.783 327.268C125.692 327.463 125.646 327.693 125.646 327.957V332H124.255ZM132.018 322.601C132.053 322.601 132.155 322.603 132.324 322.607C132.497 322.607 132.705 322.607 132.948 322.607C133.191 322.603 133.438 322.603 133.689 322.607C133.945 322.607 134.172 322.61 134.371 322.614C135.52 322.631 136.454 322.822 137.173 323.186C137.892 323.55 138.419 324.074 138.752 324.759C139.09 325.439 139.259 326.269 139.259 327.248C139.259 328.267 139.08 329.131 138.72 329.842C138.36 330.548 137.81 331.086 137.069 331.454C136.332 331.818 135.398 332 134.267 332H132.018V322.601ZM133.435 323.771V330.83H134.28C134.991 330.83 135.609 330.715 136.133 330.485C136.662 330.251 137.071 329.874 137.361 329.354C137.652 328.83 137.797 328.13 137.797 327.255C137.797 326.397 137.658 325.714 137.381 325.207C137.104 324.696 136.705 324.33 136.185 324.109C135.669 323.884 135.047 323.771 134.319 323.771H133.435ZM142.499 332.13C142.066 332.13 141.68 332.052 141.342 331.896C141.008 331.74 140.746 331.515 140.555 331.22C140.365 330.925 140.269 330.57 140.269 330.154C140.269 329.409 140.534 328.852 141.062 328.483C141.591 328.115 142.434 327.92 143.591 327.898L144.696 327.866V327.378C144.696 326.993 144.581 326.689 144.351 326.468C144.122 326.247 143.769 326.139 143.292 326.143C142.932 326.143 142.612 326.226 142.33 326.39C142.053 326.555 141.871 326.826 141.784 327.203H140.575C140.601 326.757 140.729 326.382 140.958 326.078C141.192 325.771 141.513 325.539 141.92 325.383C142.328 325.227 142.807 325.149 143.357 325.149C143.968 325.149 144.471 325.233 144.865 325.402C145.259 325.567 145.552 325.81 145.742 326.13C145.937 326.451 146.035 326.841 146.035 327.3V332H144.858L144.748 330.765C144.497 331.281 144.178 331.638 143.792 331.837C143.411 332.033 142.98 332.13 142.499 332.13ZM142.934 331.161C143.147 331.161 143.357 331.125 143.565 331.051C143.773 330.973 143.961 330.869 144.13 330.739C144.299 330.605 144.434 330.455 144.533 330.29C144.637 330.126 144.692 329.957 144.696 329.783V328.672L143.786 328.691C143.322 328.696 142.928 328.743 142.603 328.834C142.282 328.925 142.035 329.066 141.862 329.257C141.693 329.448 141.608 329.701 141.608 330.017C141.608 330.377 141.734 330.659 141.985 330.862C142.237 331.062 142.553 331.161 142.934 331.161ZM148.281 334.145C147.869 334.145 147.583 334.115 147.423 334.054C147.267 333.993 147.189 333.963 147.189 333.963V333.066L147.872 333.079C148.132 333.092 148.344 333.077 148.509 333.034C148.678 332.99 148.81 332.93 148.905 332.852C149.005 332.778 149.081 332.698 149.133 332.611C149.185 332.524 149.224 332.444 149.25 332.371L149.458 331.805L146.838 325.279H148.229L150.114 330.245L151.986 325.279H153.351L150.55 332.377C150.359 332.845 150.149 333.207 149.919 333.463C149.694 333.718 149.445 333.896 149.172 333.996C148.899 334.095 148.602 334.145 148.281 334.145Z" fill="white"/>
<path d="M103.385 312V299.004H100.289V297.024C101.281 297.024 102.081 296.932 102.689 296.748C103.305 296.556 103.765 296.284 104.069 295.932C104.373 295.572 104.553 295.144 104.609 294.648H106.937V312H103.385ZM110.23 312V308.184H114.07V312H110.23ZM123.071 294.408C124.263 294.408 125.327 294.596 126.263 294.972C127.207 295.348 127.951 295.9 128.495 296.628C129.039 297.348 129.311 298.236 129.311 299.292C129.311 300.18 129.067 300.936 128.579 301.56C128.091 302.184 127.491 302.664 126.779 303C127.307 303.112 127.823 303.376 128.327 303.792C128.839 304.2 129.259 304.704 129.587 305.304C129.915 305.896 130.079 306.524 130.079 307.188C130.079 308.22 129.787 309.116 129.203 309.876C128.627 310.636 127.811 311.224 126.755 311.64C125.707 312.048 124.479 312.252 123.071 312.252C121.679 312.252 120.459 312.048 119.411 311.64C118.363 311.224 117.547 310.636 116.963 309.876C116.379 309.116 116.087 308.22 116.087 307.188C116.087 306.524 116.251 305.896 116.579 305.304C116.907 304.704 117.323 304.2 117.827 303.792C118.331 303.376 118.851 303.112 119.387 303C118.675 302.664 118.071 302.184 117.575 301.56C117.079 300.936 116.831 300.18 116.831 299.292C116.831 298.236 117.103 297.348 117.647 296.628C118.199 295.9 118.947 295.348 119.891 294.972C120.835 294.596 121.895 294.408 123.071 294.408ZM123.071 301.644C123.871 301.644 124.527 301.432 125.039 301.008C125.559 300.576 125.819 299.98 125.819 299.22C125.819 298.468 125.559 297.872 125.039 297.432C124.519 296.992 123.863 296.772 123.071 296.772C122.287 296.772 121.635 296.992 121.115 297.432C120.595 297.872 120.335 298.468 120.335 299.22C120.335 299.98 120.595 300.576 121.115 301.008C121.635 301.432 122.287 301.644 123.071 301.644ZM123.071 309.612C124.095 309.612 124.895 309.384 125.471 308.928C126.055 308.464 126.347 307.852 126.347 307.092C126.347 306.58 126.215 306.132 125.951 305.748C125.687 305.356 125.311 305.048 124.823 304.824C124.335 304.6 123.751 304.488 123.071 304.488C122.407 304.488 121.831 304.6 121.343 304.824C120.855 305.048 120.479 305.356 120.215 305.748C119.951 306.132 119.819 306.58 119.819 307.092C119.819 307.852 120.111 308.464 120.695 308.928C121.279 309.384 122.071 309.612 123.071 309.612ZM139.499 294.648H142.943V305.22H145.619V308.16H142.943V312H139.571L139.583 308.16H131.591V305.28L139.499 294.648ZM134.831 305.22H139.583V298.86L134.831 305.22ZM148.416 294.648H159.564L159.432 297.516H151.188L150.852 301.704C151.492 301.344 152.1 301.084 152.676 300.924C153.26 300.764 153.9 300.684 154.596 300.684C155.756 300.684 156.792 300.904 157.704 301.344C158.624 301.776 159.352 302.412 159.888 303.252C160.424 304.092 160.692 305.116 160.692 306.324C160.692 307.548 160.416 308.604 159.864 309.492C159.312 310.38 158.528 311.064 157.512 311.544C156.504 312.024 155.308 312.264 153.924 312.264C152.788 312.264 151.732 312.088 150.756 311.736C149.78 311.384 148.936 310.904 148.224 310.296C147.512 309.68 146.972 308.976 146.604 308.184L149.34 306.564C149.652 307.108 150.004 307.6 150.396 308.04C150.788 308.472 151.24 308.816 151.752 309.072C152.272 309.32 152.876 309.444 153.564 309.444C154.604 309.444 155.44 309.168 156.072 308.616C156.704 308.064 157.02 307.344 157.02 306.456C157.02 305.896 156.876 305.396 156.588 304.956C156.308 304.508 155.92 304.156 155.424 303.9C154.928 303.644 154.348 303.516 153.684 303.516C153.332 303.516 152.996 303.548 152.676 303.612C152.364 303.668 152.044 303.78 151.716 303.948C151.396 304.108 151.04 304.34 150.648 304.644C150.536 304.692 150.456 304.716 150.408 304.716C150.368 304.716 150.288 304.688 150.168 304.632L147.624 303.456L148.416 294.648Z" fill="white"/>
<path opacity="0.8" d="M110.204 136.601H116.21L116.203 137.797H111.621V140.702H115.696V141.885H111.621V146H110.204V136.601ZM119.237 146.13C118.804 146.13 118.418 146.052 118.08 145.896C117.746 145.74 117.484 145.515 117.294 145.22C117.103 144.925 117.008 144.57 117.008 144.154C117.008 143.409 117.272 142.852 117.801 142.483C118.329 142.115 119.172 141.92 120.329 141.898L121.434 141.866V141.378C121.434 140.993 121.319 140.689 121.09 140.468C120.86 140.247 120.507 140.139 120.03 140.143C119.67 140.143 119.35 140.226 119.068 140.39C118.791 140.555 118.609 140.826 118.522 141.203H117.313C117.339 140.757 117.467 140.382 117.697 140.078C117.931 139.771 118.251 139.539 118.659 139.383C119.066 139.227 119.545 139.149 120.095 139.149C120.706 139.149 121.209 139.233 121.603 139.402C121.997 139.567 122.29 139.81 122.481 140.13C122.676 140.451 122.773 140.841 122.773 141.3V146H121.597L121.486 144.765C121.235 145.281 120.916 145.638 120.531 145.837C120.149 146.033 119.718 146.13 119.237 146.13ZM119.673 145.161C119.885 145.161 120.095 145.125 120.303 145.051C120.511 144.973 120.7 144.869 120.869 144.739C121.038 144.605 121.172 144.455 121.272 144.29C121.376 144.126 121.43 143.957 121.434 143.783V142.672L120.524 142.691C120.06 142.696 119.666 142.743 119.341 142.834C119.02 142.925 118.773 143.066 118.6 143.257C118.431 143.448 118.347 143.701 118.347 144.017C118.347 144.377 118.472 144.659 118.724 144.862C118.975 145.062 119.291 145.161 119.673 145.161ZM126.83 146.13C126.362 146.13 125.922 146.056 125.511 145.909C125.103 145.762 124.761 145.53 124.484 145.213C124.211 144.897 124.039 144.492 123.97 143.998H125.212C125.268 144.254 125.374 144.466 125.53 144.635C125.69 144.8 125.881 144.923 126.102 145.005C126.327 145.083 126.568 145.122 126.824 145.122C127.248 145.122 127.591 145.047 127.851 144.895C128.115 144.739 128.247 144.501 128.247 144.18C128.247 143.95 128.176 143.766 128.033 143.627C127.894 143.489 127.673 143.387 127.37 143.322L126.031 143.003C125.476 142.873 125.032 142.668 124.698 142.386C124.364 142.1 124.195 141.701 124.191 141.19C124.191 140.796 124.289 140.445 124.484 140.137C124.683 139.829 124.978 139.589 125.368 139.415C125.758 139.238 126.243 139.149 126.824 139.149C127.582 139.149 128.191 139.318 128.65 139.656C129.109 139.994 129.348 140.484 129.365 141.125H128.163C128.119 140.817 127.978 140.577 127.74 140.403C127.506 140.226 127.196 140.137 126.811 140.137C126.412 140.137 126.085 140.217 125.829 140.377C125.573 140.533 125.446 140.774 125.446 141.099C125.446 141.32 125.539 141.495 125.725 141.625C125.911 141.751 126.191 141.855 126.564 141.938L127.838 142.256C128.167 142.343 128.438 142.457 128.65 142.6C128.862 142.739 129.029 142.893 129.151 143.062C129.272 143.231 129.356 143.406 129.404 143.588C129.456 143.77 129.482 143.942 129.482 144.102C129.482 144.527 129.374 144.891 129.157 145.194C128.945 145.493 128.639 145.725 128.241 145.889C127.846 146.05 127.376 146.13 126.83 146.13ZM130.797 146V136.341H132.168V140.26C132.277 140.083 132.422 139.914 132.604 139.753C132.79 139.593 133.016 139.463 133.28 139.363C133.549 139.259 133.861 139.207 134.216 139.207C134.654 139.207 135.048 139.29 135.399 139.454C135.754 139.615 136.036 139.849 136.244 140.156C136.456 140.46 136.562 140.822 136.562 141.242V146H135.171V141.495C135.171 141.118 135.041 140.828 134.781 140.624C134.521 140.421 134.188 140.319 133.78 140.319C133.507 140.319 133.247 140.367 133 140.462C132.758 140.553 132.561 140.692 132.409 140.878C132.262 141.06 132.188 141.29 132.188 141.567V146H130.797ZM139.56 139.279V146H138.221V139.279H139.56ZM139.586 136.607V137.979H138.188V136.607H139.586ZM144.027 146.13C143.398 146.13 142.848 145.996 142.376 145.727C141.908 145.454 141.544 145.06 141.284 144.544C141.028 144.028 140.9 143.404 140.9 142.672C140.9 141.966 141.021 141.348 141.264 140.819C141.511 140.291 141.869 139.881 142.337 139.591C142.805 139.296 143.37 139.149 144.033 139.149C144.666 139.149 145.214 139.288 145.678 139.565C146.141 139.838 146.501 140.239 146.757 140.767C147.012 141.292 147.14 141.927 147.14 142.672C147.14 143.352 147.019 143.952 146.776 144.472C146.538 144.992 146.187 145.4 145.723 145.694C145.264 145.985 144.698 146.13 144.027 146.13ZM144.033 145.057C144.414 145.057 144.733 144.958 144.989 144.758C145.249 144.555 145.444 144.271 145.574 143.907C145.704 143.539 145.769 143.114 145.769 142.633C145.769 142.187 145.71 141.781 145.593 141.417C145.48 141.049 145.296 140.757 145.041 140.54C144.785 140.323 144.449 140.215 144.033 140.215C143.643 140.215 143.318 140.315 143.058 140.514C142.798 140.709 142.601 140.988 142.467 141.352C142.337 141.712 142.272 142.139 142.272 142.633C142.272 143.071 142.33 143.474 142.447 143.842C142.564 144.21 142.753 144.505 143.013 144.726C143.273 144.947 143.613 145.057 144.033 145.057ZM148.374 146V139.279H149.733V140.247C149.841 140.065 149.986 139.894 150.168 139.734C150.355 139.574 150.582 139.444 150.851 139.344C151.124 139.244 151.438 139.194 151.793 139.194C152.214 139.194 152.602 139.279 152.957 139.448C153.317 139.613 153.605 139.873 153.821 140.228C154.038 140.579 154.146 141.034 154.146 141.593V146H152.755V141.742C152.755 141.261 152.625 140.904 152.365 140.67C152.11 140.436 151.778 140.319 151.371 140.319C151.098 140.319 150.838 140.364 150.591 140.455C150.344 140.546 150.145 140.685 149.993 140.871C149.841 141.053 149.765 141.283 149.765 141.56V146H148.374Z" fill="white"/>
<path opacity="0.5" d="M110.585 194V184.601H113.841C114.513 184.601 115.113 184.716 115.642 184.945C116.175 185.175 116.593 185.513 116.896 185.959C117.204 186.406 117.358 186.954 117.358 187.604C117.358 188.228 117.217 188.761 116.935 189.203C116.658 189.641 116.268 189.976 115.765 190.21C115.267 190.44 114.688 190.555 114.03 190.555H112.002V194H110.585ZM111.995 189.417H113.991C114.589 189.417 115.076 189.246 115.453 188.904C115.83 188.557 116.019 188.098 116.019 187.526C116.019 186.945 115.824 186.501 115.434 186.193C115.044 185.881 114.545 185.725 113.939 185.725H111.995V189.417ZM119.23 190.964C119.23 191.367 119.295 191.729 119.425 192.05C119.56 192.366 119.761 192.618 120.03 192.804C120.299 192.986 120.632 193.077 121.031 193.077C121.43 193.077 121.774 192.986 122.064 192.804C122.359 192.622 122.552 192.351 122.643 191.991H123.93C123.852 192.451 123.668 192.841 123.377 193.161C123.091 193.482 122.745 193.725 122.337 193.889C121.93 194.05 121.503 194.13 121.057 194.13C120.42 194.13 119.859 193.994 119.373 193.72C118.888 193.443 118.509 193.049 118.236 192.537C117.967 192.026 117.833 191.417 117.833 190.711C117.833 190.013 117.956 189.398 118.203 188.865C118.45 188.328 118.808 187.907 119.276 187.604C119.744 187.301 120.307 187.149 120.966 187.149C121.616 187.149 122.162 187.288 122.604 187.565C123.05 187.842 123.388 188.232 123.618 188.735C123.848 189.233 123.962 189.823 123.962 190.503V190.964H119.23ZM119.23 190.061H122.636C122.636 189.71 122.576 189.391 122.454 189.105C122.333 188.815 122.147 188.588 121.895 188.423C121.648 188.254 121.336 188.169 120.959 188.169C120.574 188.169 120.253 188.263 119.997 188.449C119.742 188.635 119.549 188.874 119.419 189.164C119.293 189.454 119.23 189.753 119.23 190.061ZM125.255 194V187.279H126.588V188.657C126.7 188.328 126.856 188.052 127.056 187.831C127.259 187.606 127.496 187.437 127.764 187.324C128.033 187.207 128.317 187.149 128.616 187.149C128.707 187.149 128.793 187.155 128.876 187.169C128.958 187.177 129.023 187.194 129.071 187.22V188.559C129.014 188.533 128.941 188.516 128.85 188.507C128.763 188.499 128.687 188.492 128.622 188.488C128.328 188.466 128.059 188.481 127.816 188.533C127.574 188.585 127.363 188.672 127.186 188.793C127.012 188.915 126.878 189.073 126.783 189.268C126.692 189.463 126.646 189.693 126.646 189.957V194H125.255ZM133.018 184.601C133.053 184.601 133.155 184.603 133.324 184.607C133.497 184.607 133.705 184.607 133.948 184.607C134.191 184.603 134.438 184.603 134.689 184.607C134.945 184.607 135.172 184.61 135.371 184.614C136.52 184.631 137.454 184.822 138.173 185.186C138.892 185.55 139.419 186.074 139.752 186.759C140.09 187.439 140.259 188.269 140.259 189.248C140.259 190.267 140.08 191.131 139.72 191.842C139.36 192.548 138.81 193.086 138.069 193.454C137.332 193.818 136.398 194 135.267 194H133.018V184.601ZM134.435 185.771V192.83H135.28C135.991 192.83 136.609 192.715 137.133 192.485C137.662 192.251 138.071 191.874 138.361 191.354C138.652 190.83 138.797 190.13 138.797 189.255C138.797 188.397 138.658 187.714 138.381 187.207C138.104 186.696 137.705 186.33 137.185 186.109C136.669 185.884 136.047 185.771 135.319 185.771H134.435ZM143.499 194.13C143.066 194.13 142.68 194.052 142.342 193.896C142.008 193.74 141.746 193.515 141.555 193.22C141.365 192.925 141.269 192.57 141.269 192.154C141.269 191.409 141.534 190.852 142.062 190.483C142.591 190.115 143.434 189.92 144.591 189.898L145.696 189.866V189.378C145.696 188.993 145.581 188.689 145.351 188.468C145.122 188.247 144.769 188.139 144.292 188.143C143.932 188.143 143.612 188.226 143.33 188.39C143.053 188.555 142.871 188.826 142.784 189.203H141.575C141.601 188.757 141.729 188.382 141.958 188.078C142.192 187.771 142.513 187.539 142.92 187.383C143.328 187.227 143.807 187.149 144.357 187.149C144.968 187.149 145.471 187.233 145.865 187.402C146.259 187.567 146.552 187.81 146.742 188.13C146.937 188.451 147.035 188.841 147.035 189.3V194H145.858L145.748 192.765C145.497 193.281 145.178 193.638 144.792 193.837C144.411 194.033 143.98 194.13 143.499 194.13ZM143.934 193.161C144.147 193.161 144.357 193.125 144.565 193.051C144.773 192.973 144.961 192.869 145.13 192.739C145.299 192.605 145.434 192.455 145.533 192.29C145.637 192.126 145.692 191.957 145.696 191.783V190.672L144.786 190.691C144.322 190.696 143.928 190.743 143.603 190.834C143.282 190.925 143.035 191.066 142.862 191.257C142.693 191.448 142.608 191.701 142.608 192.017C142.608 192.377 142.734 192.659 142.985 192.862C143.237 193.062 143.553 193.161 143.934 193.161ZM149.281 196.145C148.869 196.145 148.583 196.115 148.423 196.054C148.267 195.993 148.189 195.963 148.189 195.963V195.066L148.872 195.079C149.132 195.092 149.344 195.077 149.509 195.034C149.678 194.99 149.81 194.93 149.905 194.852C150.005 194.778 150.081 194.698 150.133 194.611C150.185 194.524 150.224 194.444 150.25 194.371L150.458 193.805L147.838 187.279H149.229L151.114 192.245L152.986 187.279H154.351L151.55 194.377C151.359 194.845 151.149 195.207 150.919 195.463C150.694 195.718 150.445 195.896 150.172 195.996C149.899 196.095 149.602 196.145 149.281 196.145Z" fill="white"/>
<path d="M106.947 156.648H110.391V167.22H113.067V170.16H110.391V174H107.019L107.031 170.16H99.0389V167.28L106.947 156.648ZM102.279 167.22H107.031V160.86L102.279 167.22ZM114.465 174V170.184H118.305V174H114.465ZM122.134 156.648H133.282L133.15 159.516H124.906L124.57 163.704C125.21 163.344 125.818 163.084 126.394 162.924C126.978 162.764 127.618 162.684 128.314 162.684C129.474 162.684 130.51 162.904 131.422 163.344C132.342 163.776 133.07 164.412 133.606 165.252C134.142 166.092 134.41 167.116 134.41 168.324C134.41 169.548 134.134 170.604 133.582 171.492C133.03 172.38 132.246 173.064 131.23 173.544C130.222 174.024 129.026 174.264 127.642 174.264C126.506 174.264 125.45 174.088 124.474 173.736C123.498 173.384 122.654 172.904 121.942 172.296C121.23 171.68 120.69 170.976 120.322 170.184L123.058 168.564C123.37 169.108 123.722 169.6 124.114 170.04C124.506 170.472 124.958 170.816 125.47 171.072C125.99 171.32 126.594 171.444 127.282 171.444C128.322 171.444 129.158 171.168 129.79 170.616C130.422 170.064 130.738 169.344 130.738 168.456C130.738 167.896 130.594 167.396 130.306 166.956C130.026 166.508 129.638 166.156 129.142 165.9C128.646 165.644 128.066 165.516 127.402 165.516C127.05 165.516 126.714 165.548 126.394 165.612C126.082 165.668 125.762 165.78 125.434 165.948C125.114 166.108 124.758 166.34 124.366 166.644C124.254 166.692 124.174 166.716 124.126 166.716C124.086 166.716 124.006 166.688 123.886 166.632L121.342 165.456L122.134 156.648ZM143.321 156.408C144.409 156.408 145.413 156.608 146.333 157.008C147.253 157.4 148.001 157.972 148.577 158.724C149.161 159.468 149.481 160.364 149.537 161.412H146.333C146.125 160.684 145.773 160.132 145.277 159.756C144.781 159.372 144.153 159.18 143.393 159.18C142.561 159.18 141.869 159.416 141.317 159.888C140.765 160.36 140.369 161.02 140.129 161.868C139.889 162.716 139.825 163.704 139.937 164.832C140.201 164.448 140.537 164.124 140.945 163.86C141.353 163.588 141.809 163.38 142.313 163.236C142.817 163.092 143.341 163.02 143.885 163.02C145.061 163.02 146.089 163.24 146.969 163.68C147.849 164.112 148.537 164.728 149.033 165.528C149.529 166.328 149.777 167.264 149.777 168.336C149.777 169.472 149.497 170.488 148.937 171.384C148.385 172.272 147.613 172.976 146.621 173.496C145.629 174.008 144.481 174.264 143.177 174.264C141.705 174.264 140.433 173.908 139.361 173.196C138.289 172.484 137.465 171.484 136.889 170.196C136.321 168.908 136.037 167.396 136.037 165.66C136.037 163.756 136.325 162.112 136.901 160.728C137.485 159.344 138.321 158.28 139.409 157.536C140.497 156.784 141.801 156.408 143.321 156.408ZM143.069 165.636C142.573 165.636 142.093 165.748 141.629 165.972C141.173 166.188 140.797 166.468 140.501 166.812C140.213 167.148 140.069 167.492 140.069 167.844C140.061 168.62 140.181 169.288 140.429 169.848C140.685 170.4 141.037 170.828 141.485 171.132C141.941 171.428 142.465 171.576 143.057 171.576C143.617 171.576 144.121 171.448 144.569 171.192C145.025 170.928 145.389 170.564 145.661 170.1C145.933 169.636 146.069 169.104 146.069 168.504C146.069 167.864 145.937 167.332 145.673 166.908C145.409 166.484 145.049 166.168 144.593 165.96C144.145 165.744 143.637 165.636 143.069 165.636ZM151.002 156.648H163.962V159.516C163.41 160.204 162.854 161.016 162.294 161.952C161.742 162.888 161.21 163.888 160.698 164.952C160.194 166.016 159.738 167.092 159.33 168.18C158.922 169.268 158.594 170.312 158.346 171.312C158.098 172.312 157.962 173.208 157.938 174H154.158C154.222 173.296 154.382 172.408 154.638 171.336C154.894 170.256 155.266 169.064 155.754 167.76C156.25 166.448 156.87 165.088 157.614 163.68C158.366 162.272 159.262 160.884 160.302 159.516H151.002V156.648Z" fill="white"/>
<path opacity="0.8" d="M214.384 229V219.601H220.455L220.448 220.81H215.781V223.663H219.948V224.853H215.775V227.771L220.565 227.778V229H214.384ZM223.669 229.091C223.271 229.091 222.95 229.039 222.707 228.935C222.469 228.831 222.287 228.692 222.161 228.519C222.036 228.341 221.951 228.142 221.908 227.921C221.869 227.696 221.849 227.464 221.849 227.225V219.341H223.221V227.082C223.221 227.394 223.281 227.633 223.403 227.797C223.528 227.962 223.719 228.055 223.975 228.077L224.326 228.09V228.974C224.217 229.009 224.105 229.037 223.988 229.059C223.875 229.08 223.769 229.091 223.669 229.091ZM226.502 225.964C226.502 226.367 226.567 226.729 226.697 227.05C226.831 227.366 227.032 227.618 227.301 227.804C227.57 227.986 227.903 228.077 228.302 228.077C228.701 228.077 229.045 227.986 229.336 227.804C229.63 227.622 229.823 227.351 229.914 226.991H231.201C231.123 227.451 230.939 227.841 230.649 228.161C230.363 228.482 230.016 228.725 229.609 228.889C229.201 229.05 228.774 229.13 228.328 229.13C227.691 229.13 227.13 228.994 226.645 228.72C226.159 228.443 225.78 228.049 225.507 227.537C225.238 227.026 225.104 226.417 225.104 225.711C225.104 225.013 225.228 224.398 225.475 223.865C225.722 223.328 226.079 222.907 226.547 222.604C227.015 222.301 227.578 222.149 228.237 222.149C228.887 222.149 229.433 222.288 229.875 222.565C230.321 222.842 230.659 223.232 230.889 223.735C231.119 224.233 231.234 224.823 231.234 225.503V225.964H226.502ZM226.502 225.061H229.908C229.908 224.71 229.847 224.391 229.726 224.105C229.604 223.815 229.418 223.588 229.167 223.423C228.92 223.254 228.608 223.169 228.231 223.169C227.845 223.169 227.524 223.263 227.269 223.449C227.013 223.635 226.82 223.874 226.69 224.164C226.564 224.454 226.502 224.753 226.502 225.061ZM235.263 222.149C235.766 222.149 236.212 222.249 236.602 222.448C236.996 222.643 237.315 222.916 237.557 223.267C237.8 223.618 237.947 224.027 237.999 224.495H236.797C236.758 224.274 236.673 224.069 236.543 223.878C236.418 223.687 236.247 223.536 236.03 223.423C235.818 223.306 235.564 223.247 235.269 223.247C234.732 223.247 234.294 223.445 233.956 223.839C233.618 224.233 233.449 224.838 233.449 225.652C233.449 226.398 233.605 226.991 233.917 227.433C234.234 227.875 234.693 228.096 235.295 228.096C235.586 228.096 235.837 228.036 236.049 227.914C236.266 227.793 236.437 227.637 236.563 227.446C236.689 227.256 236.769 227.059 236.803 226.855H237.986C237.939 227.306 237.791 227.702 237.544 228.045C237.302 228.387 236.983 228.653 236.589 228.844C236.199 229.035 235.757 229.13 235.263 229.13C234.652 229.13 234.11 228.998 233.638 228.733C233.166 228.465 232.795 228.073 232.526 227.557C232.262 227.037 232.13 226.406 232.13 225.665C232.13 224.968 232.253 224.355 232.5 223.826C232.747 223.297 233.105 222.886 233.573 222.591C234.045 222.296 234.609 222.149 235.263 222.149ZM242.661 223.28H241.153L241.159 227.29C241.159 227.511 241.181 227.674 241.224 227.778C241.272 227.878 241.35 227.943 241.458 227.973C241.571 227.999 241.723 228.012 241.913 228.012H242.7V228.915C242.613 228.95 242.483 228.98 242.31 229.007C242.141 229.033 241.922 229.046 241.653 229.046C241.155 229.046 240.767 228.978 240.49 228.844C240.217 228.71 240.026 228.517 239.918 228.265C239.814 228.01 239.762 227.702 239.762 227.342V223.28H238.67V222.279H239.801L240.145 220.303H241.153V222.272H242.661V223.28ZM244.042 229V222.279H245.374V223.657C245.487 223.328 245.643 223.052 245.842 222.831C246.046 222.606 246.282 222.437 246.551 222.324C246.819 222.207 247.103 222.149 247.402 222.149C247.493 222.149 247.58 222.155 247.662 222.169C247.744 222.177 247.809 222.194 247.857 222.22V223.559C247.801 223.533 247.727 223.516 247.636 223.507C247.549 223.499 247.474 223.492 247.409 223.488C247.114 223.466 246.845 223.481 246.603 223.533C246.36 223.585 246.15 223.672 245.972 223.793C245.799 223.915 245.664 224.073 245.569 224.268C245.478 224.463 245.433 224.693 245.433 224.957V229H244.042ZM251.501 229.13C250.873 229.13 250.322 228.996 249.85 228.727C249.382 228.454 249.018 228.06 248.758 227.544C248.502 227.028 248.374 226.404 248.374 225.672C248.374 224.966 248.496 224.348 248.738 223.819C248.985 223.291 249.343 222.881 249.811 222.591C250.279 222.296 250.844 222.149 251.507 222.149C252.14 222.149 252.688 222.288 253.152 222.565C253.616 222.838 253.975 223.239 254.231 223.767C254.487 224.292 254.614 224.927 254.614 225.672C254.614 226.352 254.493 226.952 254.25 227.472C254.012 227.992 253.661 228.4 253.197 228.694C252.738 228.985 252.173 229.13 251.501 229.13ZM251.507 228.057C251.889 228.057 252.207 227.958 252.463 227.758C252.723 227.555 252.918 227.271 253.048 226.907C253.178 226.539 253.243 226.114 253.243 225.633C253.243 225.187 253.184 224.781 253.067 224.417C252.955 224.049 252.771 223.757 252.515 223.54C252.259 223.323 251.923 223.215 251.507 223.215C251.117 223.215 250.792 223.315 250.532 223.514C250.272 223.709 250.075 223.988 249.941 224.352C249.811 224.712 249.746 225.139 249.746 225.633C249.746 226.071 249.804 226.474 249.921 226.842C250.038 227.21 250.227 227.505 250.487 227.726C250.747 227.947 251.087 228.057 251.507 228.057ZM255.849 229V222.279H257.207V223.247C257.316 223.065 257.461 222.894 257.643 222.734C257.829 222.574 258.057 222.444 258.325 222.344C258.598 222.244 258.912 222.194 259.268 222.194C259.688 222.194 260.076 222.279 260.431 222.448C260.791 222.613 261.079 222.873 261.296 223.228C261.512 223.579 261.621 224.034 261.621 224.593V229H260.23V224.742C260.23 224.261 260.1 223.904 259.84 223.67C259.584 223.436 259.253 223.319 258.845 223.319C258.572 223.319 258.312 223.364 258.065 223.455C257.818 223.546 257.619 223.685 257.467 223.871C257.316 224.053 257.24 224.283 257.24 224.56V229H255.849ZM264.611 222.279V229H263.272V222.279H264.611ZM264.637 219.607V220.979H263.24V219.607H264.637ZM269.085 222.149C269.587 222.149 270.034 222.249 270.424 222.448C270.818 222.643 271.137 222.916 271.379 223.267C271.622 223.618 271.769 224.027 271.821 224.495H270.619C270.58 224.274 270.495 224.069 270.365 223.878C270.24 223.687 270.068 223.536 269.852 223.423C269.639 223.306 269.386 223.247 269.091 223.247C268.554 223.247 268.116 223.445 267.778 223.839C267.44 224.233 267.271 224.838 267.271 225.652C267.271 226.398 267.427 226.991 267.739 227.433C268.056 227.875 268.515 228.096 269.117 228.096C269.408 228.096 269.659 228.036 269.871 227.914C270.088 227.793 270.259 227.637 270.385 227.446C270.51 227.256 270.591 227.059 270.625 226.855H271.808C271.761 227.306 271.613 227.702 271.366 228.045C271.124 228.387 270.805 228.653 270.411 228.844C270.021 229.035 269.579 229.13 269.085 229.13C268.474 229.13 267.932 228.998 267.46 228.733C266.987 228.465 266.617 228.073 266.348 227.557C266.084 227.037 265.952 226.406 265.952 225.665C265.952 224.968 266.075 224.355 266.322 223.826C266.569 223.297 266.927 222.886 267.395 222.591C267.867 222.296 268.43 222.149 269.085 222.149ZM275.522 229.13C275.054 229.13 274.614 229.056 274.202 228.909C273.795 228.762 273.452 228.53 273.175 228.213C272.902 227.897 272.731 227.492 272.662 226.998H273.903C273.959 227.254 274.066 227.466 274.222 227.635C274.382 227.8 274.573 227.923 274.794 228.005C275.019 228.083 275.259 228.122 275.515 228.122C275.94 228.122 276.282 228.047 276.542 227.895C276.806 227.739 276.939 227.501 276.939 227.18C276.939 226.95 276.867 226.766 276.724 226.627C276.585 226.489 276.364 226.387 276.061 226.322L274.722 226.003C274.167 225.873 273.723 225.668 273.39 225.386C273.056 225.1 272.887 224.701 272.883 224.19C272.883 223.796 272.98 223.445 273.175 223.137C273.374 222.829 273.669 222.589 274.059 222.415C274.449 222.238 274.934 222.149 275.515 222.149C276.273 222.149 276.882 222.318 277.342 222.656C277.801 222.994 278.039 223.484 278.057 224.125H276.854C276.811 223.817 276.67 223.577 276.432 223.403C276.198 223.226 275.888 223.137 275.502 223.137C275.103 223.137 274.776 223.217 274.521 223.377C274.265 223.533 274.137 223.774 274.137 224.099C274.137 224.32 274.23 224.495 274.417 224.625C274.603 224.751 274.882 224.855 275.255 224.938L276.529 225.256C276.858 225.343 277.129 225.457 277.342 225.6C277.554 225.739 277.721 225.893 277.842 226.062C277.963 226.231 278.048 226.406 278.096 226.588C278.148 226.77 278.174 226.942 278.174 227.102C278.174 227.527 278.065 227.891 277.849 228.194C277.636 228.493 277.331 228.725 276.932 228.889C276.538 229.05 276.068 229.13 275.522 229.13Z" fill="white"/>
<path opacity="0.5" d="M224.585 277V267.601H227.841C228.513 267.601 229.113 267.716 229.642 267.945C230.175 268.175 230.593 268.513 230.896 268.959C231.204 269.406 231.358 269.954 231.358 270.604C231.358 271.228 231.217 271.761 230.935 272.203C230.658 272.641 230.268 272.976 229.765 273.21C229.267 273.44 228.688 273.555 228.03 273.555H226.002V277H224.585ZM225.995 272.417H227.991C228.589 272.417 229.076 272.246 229.453 271.904C229.83 271.557 230.019 271.098 230.019 270.526C230.019 269.945 229.824 269.501 229.434 269.193C229.044 268.881 228.545 268.725 227.939 268.725H225.995V272.417ZM233.23 273.964C233.23 274.367 233.295 274.729 233.425 275.05C233.56 275.366 233.761 275.618 234.03 275.804C234.299 275.986 234.632 276.077 235.031 276.077C235.43 276.077 235.774 275.986 236.064 275.804C236.359 275.622 236.552 275.351 236.643 274.991H237.93C237.852 275.451 237.668 275.841 237.377 276.161C237.091 276.482 236.745 276.725 236.337 276.889C235.93 277.05 235.503 277.13 235.057 277.13C234.42 277.13 233.859 276.994 233.373 276.72C232.888 276.443 232.509 276.049 232.236 275.537C231.967 275.026 231.833 274.417 231.833 273.711C231.833 273.013 231.956 272.398 232.203 271.865C232.45 271.328 232.808 270.907 233.276 270.604C233.744 270.301 234.307 270.149 234.966 270.149C235.616 270.149 236.162 270.288 236.604 270.565C237.05 270.842 237.388 271.232 237.618 271.735C237.848 272.233 237.962 272.823 237.962 273.503V273.964H233.23ZM233.23 273.061H236.636C236.636 272.71 236.576 272.391 236.454 272.105C236.333 271.815 236.147 271.588 235.895 271.423C235.648 271.254 235.336 271.169 234.959 271.169C234.574 271.169 234.253 271.263 233.997 271.449C233.742 271.635 233.549 271.874 233.419 272.164C233.293 272.454 233.23 272.753 233.23 273.061ZM239.255 277V270.279H240.588V271.657C240.7 271.328 240.856 271.052 241.056 270.831C241.259 270.606 241.496 270.437 241.764 270.324C242.033 270.207 242.317 270.149 242.616 270.149C242.707 270.149 242.793 270.155 242.876 270.169C242.958 270.177 243.023 270.194 243.071 270.22V271.559C243.014 271.533 242.941 271.516 242.85 271.507C242.763 271.499 242.687 271.492 242.622 271.488C242.328 271.466 242.059 271.481 241.816 271.533C241.574 271.585 241.363 271.672 241.186 271.793C241.012 271.915 240.878 272.073 240.783 272.268C240.692 272.463 240.646 272.693 240.646 272.957V277H239.255ZM247.018 267.601C247.053 267.601 247.155 267.603 247.324 267.607C247.497 267.607 247.705 267.607 247.948 267.607C248.191 267.603 248.438 267.603 248.689 267.607C248.945 267.607 249.172 267.61 249.371 267.614C250.52 267.631 251.454 267.822 252.173 268.186C252.892 268.55 253.419 269.074 253.752 269.759C254.09 270.439 254.259 271.269 254.259 272.248C254.259 273.267 254.08 274.131 253.72 274.842C253.36 275.548 252.81 276.086 252.069 276.454C251.332 276.818 250.398 277 249.267 277H247.018V267.601ZM248.435 268.771V275.83H249.28C249.991 275.83 250.609 275.715 251.133 275.485C251.662 275.251 252.071 274.874 252.361 274.354C252.652 273.83 252.797 273.13 252.797 272.255C252.797 271.397 252.658 270.714 252.381 270.207C252.104 269.696 251.705 269.33 251.185 269.109C250.669 268.884 250.047 268.771 249.319 268.771H248.435ZM257.499 277.13C257.066 277.13 256.68 277.052 256.342 276.896C256.008 276.74 255.746 276.515 255.555 276.22C255.365 275.925 255.269 275.57 255.269 275.154C255.269 274.409 255.534 273.852 256.062 273.483C256.591 273.115 257.434 272.92 258.591 272.898L259.696 272.866V272.378C259.696 271.993 259.581 271.689 259.351 271.468C259.122 271.247 258.769 271.139 258.292 271.143C257.932 271.143 257.612 271.226 257.33 271.39C257.053 271.555 256.871 271.826 256.784 272.203H255.575C255.601 271.757 255.729 271.382 255.958 271.078C256.192 270.771 256.513 270.539 256.92 270.383C257.328 270.227 257.807 270.149 258.357 270.149C258.968 270.149 259.471 270.233 259.865 270.402C260.259 270.567 260.552 270.81 260.742 271.13C260.937 271.451 261.035 271.841 261.035 272.3V277H259.858L259.748 275.765C259.497 276.281 259.178 276.638 258.792 276.837C258.411 277.033 257.98 277.13 257.499 277.13ZM257.934 276.161C258.147 276.161 258.357 276.125 258.565 276.051C258.773 275.973 258.961 275.869 259.13 275.739C259.299 275.605 259.434 275.455 259.533 275.29C259.637 275.126 259.692 274.957 259.696 274.783V273.672L258.786 273.691C258.322 273.696 257.928 273.743 257.603 273.834C257.282 273.925 257.035 274.066 256.862 274.257C256.693 274.448 256.608 274.701 256.608 275.017C256.608 275.377 256.734 275.659 256.985 275.862C257.237 276.062 257.553 276.161 257.934 276.161ZM263.281 279.145C262.869 279.145 262.583 279.115 262.423 279.054C262.267 278.993 262.189 278.963 262.189 278.963V278.066L262.872 278.079C263.132 278.092 263.344 278.077 263.509 278.034C263.678 277.99 263.81 277.93 263.905 277.852C264.005 277.778 264.081 277.698 264.133 277.611C264.185 277.524 264.224 277.444 264.25 277.371L264.458 276.805L261.838 270.279H263.229L265.114 275.245L266.986 270.279H268.351L265.55 277.377C265.359 277.845 265.149 278.207 264.919 278.463C264.694 278.718 264.445 278.896 264.172 278.996C263.899 279.095 263.602 279.145 263.281 279.145Z" fill="white"/>
<path d="M215.53 244.988C215.53 243.74 215.822 242.704 216.406 241.88C216.998 241.056 217.794 240.44 218.794 240.032C219.794 239.616 220.906 239.408 222.13 239.408C223.426 239.408 224.578 239.576 225.586 239.912C226.602 240.248 227.402 240.76 227.986 241.448C228.57 242.136 228.862 243.008 228.862 244.064C228.862 244.92 228.614 245.676 228.118 246.332C227.622 246.98 226.814 247.496 225.694 247.88C226.334 248.056 226.926 248.324 227.47 248.684C228.014 249.044 228.45 249.504 228.778 250.064C229.106 250.624 229.27 251.296 229.27 252.08C229.27 252.928 229.082 253.676 228.706 254.324C228.33 254.972 227.81 255.516 227.146 255.956C226.482 256.396 225.714 256.724 224.842 256.94C223.97 257.156 223.038 257.264 222.046 257.264C220.654 257.256 219.466 257.028 218.482 256.58C217.506 256.124 216.754 255.476 216.226 254.636C215.706 253.796 215.438 252.796 215.422 251.636H218.794C218.962 252.62 219.346 253.332 219.946 253.772C220.546 254.212 221.258 254.432 222.082 254.432C222.802 254.432 223.418 254.328 223.93 254.12C224.45 253.912 224.846 253.624 225.118 253.256C225.398 252.88 225.538 252.452 225.538 251.972C225.538 251.476 225.394 251.048 225.106 250.688C224.826 250.328 224.434 250.048 223.93 249.848C223.426 249.64 222.85 249.528 222.202 249.512L220.546 249.452V246.668L222.034 246.584C222.658 246.56 223.202 246.444 223.666 246.236C224.13 246.028 224.49 245.752 224.746 245.408C225.01 245.056 225.142 244.66 225.142 244.22C225.142 243.796 225.01 243.428 224.746 243.116C224.482 242.804 224.118 242.56 223.654 242.384C223.19 242.208 222.658 242.12 222.058 242.12C221.506 242.12 220.998 242.212 220.534 242.396C220.07 242.58 219.69 242.884 219.394 243.308C219.098 243.724 218.926 244.284 218.878 244.988H215.53ZM231.035 257V253.184H234.875V257H231.035ZM239.964 257V244.004H236.868V242.024C237.86 242.024 238.66 241.932 239.268 241.748C239.884 241.556 240.344 241.284 240.648 240.932C240.952 240.572 241.132 240.144 241.188 239.648H243.516V257H239.964ZM253.962 239.408C255.05 239.408 256.054 239.608 256.974 240.008C257.894 240.4 258.642 240.972 259.218 241.724C259.802 242.468 260.122 243.364 260.178 244.412H256.974C256.766 243.684 256.414 243.132 255.918 242.756C255.422 242.372 254.794 242.18 254.034 242.18C253.202 242.18 252.51 242.416 251.958 242.888C251.406 243.36 251.01 244.02 250.77 244.868C250.53 245.716 250.466 246.704 250.578 247.832C250.842 247.448 251.178 247.124 251.586 246.86C251.994 246.588 252.45 246.38 252.954 246.236C253.458 246.092 253.982 246.02 254.526 246.02C255.702 246.02 256.73 246.24 257.61 246.68C258.49 247.112 259.178 247.728 259.674 248.528C260.17 249.328 260.418 250.264 260.418 251.336C260.418 252.472 260.138 253.488 259.578 254.384C259.026 255.272 258.254 255.976 257.262 256.496C256.27 257.008 255.122 257.264 253.818 257.264C252.346 257.264 251.074 256.908 250.002 256.196C248.93 255.484 248.106 254.484 247.53 253.196C246.962 251.908 246.678 250.396 246.678 248.66C246.678 246.756 246.966 245.112 247.542 243.728C248.126 242.344 248.962 241.28 250.05 240.536C251.138 239.784 252.442 239.408 253.962 239.408ZM253.71 248.636C253.214 248.636 252.734 248.748 252.27 248.972C251.814 249.188 251.438 249.468 251.142 249.812C250.854 250.148 250.71 250.492 250.71 250.844C250.702 251.62 250.822 252.288 251.07 252.848C251.326 253.4 251.678 253.828 252.126 254.132C252.582 254.428 253.106 254.576 253.698 254.576C254.258 254.576 254.762 254.448 255.21 254.192C255.666 253.928 256.03 253.564 256.302 253.1C256.574 252.636 256.71 252.104 256.71 251.504C256.71 250.864 256.578 250.332 256.314 249.908C256.05 249.484 255.69 249.168 255.234 248.96C254.786 248.744 254.278 248.636 253.71 248.636ZM261.642 239.648H274.602V242.516C274.05 243.204 273.494 244.016 272.934 244.952C272.382 245.888 271.85 246.888 271.338 247.952C270.834 249.016 270.378 250.092 269.97 251.18C269.562 252.268 269.234 253.312 268.986 254.312C268.738 255.312 268.602 256.208 268.578 257H264.798C264.862 256.296 265.022 255.408 265.278 254.336C265.534 253.256 265.906 252.064 266.394 250.76C266.89 249.448 267.51 248.088 268.254 246.68C269.006 245.272 269.902 243.884 270.942 242.516H261.642V239.648Z" fill="white"/>
<path opacity="0.8" d="M214.384 229V219.601H220.455L220.448 220.81H215.781V223.663H219.948V224.853H215.775V227.771L220.565 227.778V229H214.384ZM223.669 229.091C223.271 229.091 222.95 229.039 222.707 228.935C222.469 228.831 222.287 228.692 222.161 228.519C222.036 228.341 221.951 228.142 221.908 227.921C221.869 227.696 221.849 227.464 221.849 227.225V219.341H223.221V227.082C223.221 227.394 223.281 227.633 223.403 227.797C223.528 227.962 223.719 228.055 223.975 228.077L224.326 228.09V228.974C224.217 229.009 224.105 229.037 223.988 229.059C223.875 229.08 223.769 229.091 223.669 229.091ZM226.502 225.964C226.502 226.367 226.567 226.729 226.697 227.05C226.831 227.366 227.032 227.618 227.301 227.804C227.57 227.986 227.903 228.077 228.302 228.077C228.701 228.077 229.045 227.986 229.336 227.804C229.63 227.622 229.823 227.351 229.914 226.991H231.201C231.123 227.451 230.939 227.841 230.649 228.161C230.363 228.482 230.016 228.725 229.609 228.889C229.201 229.05 228.774 229.13 228.328 229.13C227.691 229.13 227.13 228.994 226.645 228.72C226.159 228.443 225.78 228.049 225.507 227.537C225.238 227.026 225.104 226.417 225.104 225.711C225.104 225.013 225.228 224.398 225.475 223.865C225.722 223.328 226.079 222.907 226.547 222.604C227.015 222.301 227.578 222.149 228.237 222.149C228.887 222.149 229.433 222.288 229.875 222.565C230.321 222.842 230.659 223.232 230.889 223.735C231.119 224.233 231.234 224.823 231.234 225.503V225.964H226.502ZM226.502 225.061H229.908C229.908 224.71 229.847 224.391 229.726 224.105C229.604 223.815 229.418 223.588 229.167 223.423C228.92 223.254 228.608 223.169 228.231 223.169C227.845 223.169 227.524 223.263 227.269 223.449C227.013 223.635 226.82 223.874 226.69 224.164C226.564 224.454 226.502 224.753 226.502 225.061ZM235.263 222.149C235.766 222.149 236.212 222.249 236.602 222.448C236.996 222.643 237.315 222.916 237.557 223.267C237.8 223.618 237.947 224.027 237.999 224.495H236.797C236.758 224.274 236.673 224.069 236.543 223.878C236.418 223.687 236.247 223.536 236.03 223.423C235.818 223.306 235.564 223.247 235.269 223.247C234.732 223.247 234.294 223.445 233.956 223.839C233.618 224.233 233.449 224.838 233.449 225.652C233.449 226.398 233.605 226.991 233.917 227.433C234.234 227.875 234.693 228.096 235.295 228.096C235.586 228.096 235.837 228.036 236.049 227.914C236.266 227.793 236.437 227.637 236.563 227.446C236.689 227.256 236.769 227.059 236.803 226.855H237.986C237.939 227.306 237.791 227.702 237.544 228.045C237.302 228.387 236.983 228.653 236.589 228.844C236.199 229.035 235.757 229.13 235.263 229.13C234.652 229.13 234.11 228.998 233.638 228.733C233.166 228.465 232.795 228.073 232.526 227.557C232.262 227.037 232.13 226.406 232.13 225.665C232.13 224.968 232.253 224.355 232.5 223.826C232.747 223.297 233.105 222.886 233.573 222.591C234.045 222.296 234.609 222.149 235.263 222.149ZM242.661 223.28H241.153L241.159 227.29C241.159 227.511 241.181 227.674 241.224 227.778C241.272 227.878 241.35 227.943 241.458 227.973C241.571 227.999 241.723 228.012 241.913 228.012H242.7V228.915C242.613 228.95 242.483 228.98 242.31 229.007C242.141 229.033 241.922 229.046 241.653 229.046C241.155 229.046 240.767 228.978 240.49 228.844C240.217 228.71 240.026 228.517 239.918 228.265C239.814 228.01 239.762 227.702 239.762 227.342V223.28H238.67V222.279H239.801L240.145 220.303H241.153V222.272H242.661V223.28ZM244.042 229V222.279H245.374V223.657C245.487 223.328 245.643 223.052 245.842 222.831C246.046 222.606 246.282 222.437 246.551 222.324C246.819 222.207 247.103 222.149 247.402 222.149C247.493 222.149 247.58 222.155 247.662 222.169C247.744 222.177 247.809 222.194 247.857 222.22V223.559C247.801 223.533 247.727 223.516 247.636 223.507C247.549 223.499 247.474 223.492 247.409 223.488C247.114 223.466 246.845 223.481 246.603 223.533C246.36 223.585 246.15 223.672 245.972 223.793C245.799 223.915 245.664 224.073 245.569 224.268C245.478 224.463 245.433 224.693 245.433 224.957V229H244.042ZM251.501 229.13C250.873 229.13 250.322 228.996 249.85 228.727C249.382 228.454 249.018 228.06 248.758 227.544C248.502 227.028 248.374 226.404 248.374 225.672C248.374 224.966 248.496 224.348 248.738 223.819C248.985 223.291 249.343 222.881 249.811 222.591C250.279 222.296 250.844 222.149 251.507 222.149C252.14 222.149 252.688 222.288 253.152 222.565C253.616 222.838 253.975 223.239 254.231 223.767C254.487 224.292 254.614 224.927 254.614 225.672C254.614 226.352 254.493 226.952 254.25 227.472C254.012 227.992 253.661 228.4 253.197 228.694C252.738 228.985 252.173 229.13 251.501 229.13ZM251.507 228.057C251.889 228.057 252.207 227.958 252.463 227.758C252.723 227.555 252.918 227.271 253.048 226.907C253.178 226.539 253.243 226.114 253.243 225.633C253.243 225.187 253.184 224.781 253.067 224.417C252.955 224.049 252.771 223.757 252.515 223.54C252.259 223.323 251.923 223.215 251.507 223.215C251.117 223.215 250.792 223.315 250.532 223.514C250.272 223.709 250.075 223.988 249.941 224.352C249.811 224.712 249.746 225.139 249.746 225.633C249.746 226.071 249.804 226.474 249.921 226.842C250.038 227.21 250.227 227.505 250.487 227.726C250.747 227.947 251.087 228.057 251.507 228.057ZM255.849 229V222.279H257.207V223.247C257.316 223.065 257.461 222.894 257.643 222.734C257.829 222.574 258.057 222.444 258.325 222.344C258.598 222.244 258.912 222.194 259.268 222.194C259.688 222.194 260.076 222.279 260.431 222.448C260.791 222.613 261.079 222.873 261.296 223.228C261.512 223.579 261.621 224.034 261.621 224.593V229H260.23V224.742C260.23 224.261 260.1 223.904 259.84 223.67C259.584 223.436 259.253 223.319 258.845 223.319C258.572 223.319 258.312 223.364 258.065 223.455C257.818 223.546 257.619 223.685 257.467 223.871C257.316 224.053 257.24 224.283 257.24 224.56V229H255.849ZM264.611 222.279V229H263.272V222.279H264.611ZM264.637 219.607V220.979H263.24V219.607H264.637ZM269.085 222.149C269.587 222.149 270.034 222.249 270.424 222.448C270.818 222.643 271.137 222.916 271.379 223.267C271.622 223.618 271.769 224.027 271.821 224.495H270.619C270.58 224.274 270.495 224.069 270.365 223.878C270.24 223.687 270.068 223.536 269.852 223.423C269.639 223.306 269.386 223.247 269.091 223.247C268.554 223.247 268.116 223.445 267.778 223.839C267.44 224.233 267.271 224.838 267.271 225.652C267.271 226.398 267.427 226.991 267.739 227.433C268.056 227.875 268.515 228.096 269.117 228.096C269.408 228.096 269.659 228.036 269.871 227.914C270.088 227.793 270.259 227.637 270.385 227.446C270.51 227.256 270.591 227.059 270.625 226.855H271.808C271.761 227.306 271.613 227.702 271.366 228.045C271.124 228.387 270.805 228.653 270.411 228.844C270.021 229.035 269.579 229.13 269.085 229.13C268.474 229.13 267.932 228.998 267.46 228.733C266.987 228.465 266.617 228.073 266.348 227.557C266.084 227.037 265.952 226.406 265.952 225.665C265.952 224.968 266.075 224.355 266.322 223.826C266.569 223.297 266.927 222.886 267.395 222.591C267.867 222.296 268.43 222.149 269.085 222.149ZM275.522 229.13C275.054 229.13 274.614 229.056 274.202 228.909C273.795 228.762 273.452 228.53 273.175 228.213C272.902 227.897 272.731 227.492 272.662 226.998H273.903C273.959 227.254 274.066 227.466 274.222 227.635C274.382 227.8 274.573 227.923 274.794 228.005C275.019 228.083 275.259 228.122 275.515 228.122C275.94 228.122 276.282 228.047 276.542 227.895C276.806 227.739 276.939 227.501 276.939 227.18C276.939 226.95 276.867 226.766 276.724 226.627C276.585 226.489 276.364 226.387 276.061 226.322L274.722 226.003C274.167 225.873 273.723 225.668 273.39 225.386C273.056 225.1 272.887 224.701 272.883 224.19C272.883 223.796 272.98 223.445 273.175 223.137C273.374 222.829 273.669 222.589 274.059 222.415C274.449 222.238 274.934 222.149 275.515 222.149C276.273 222.149 276.882 222.318 277.342 222.656C277.801 222.994 278.039 223.484 278.057 224.125H276.854C276.811 223.817 276.67 223.577 276.432 223.403C276.198 223.226 275.888 223.137 275.502 223.137C275.103 223.137 274.776 223.217 274.521 223.377C274.265 223.533 274.137 223.774 274.137 224.099C274.137 224.32 274.23 224.495 274.417 224.625C274.603 224.751 274.882 224.855 275.255 224.938L276.529 225.256C276.858 225.343 277.129 225.457 277.342 225.6C277.554 225.739 277.721 225.893 277.842 226.062C277.963 226.231 278.048 226.406 278.096 226.588C278.148 226.77 278.174 226.942 278.174 227.102C278.174 227.527 278.065 227.891 277.849 228.194C277.636 228.493 277.331 228.725 276.932 228.889C276.538 229.05 276.068 229.13 275.522 229.13Z" fill="white"/>
<path opacity="0.5" d="M224.585 277V267.601H227.841C228.513 267.601 229.113 267.716 229.642 267.945C230.175 268.175 230.593 268.513 230.896 268.959C231.204 269.406 231.358 269.954 231.358 270.604C231.358 271.228 231.217 271.761 230.935 272.203C230.658 272.641 230.268 272.976 229.765 273.21C229.267 273.44 228.688 273.555 228.03 273.555H226.002V277H224.585ZM225.995 272.417H227.991C228.589 272.417 229.076 272.246 229.453 271.904C229.83 271.557 230.019 271.098 230.019 270.526C230.019 269.945 229.824 269.501 229.434 269.193C229.044 268.881 228.545 268.725 227.939 268.725H225.995V272.417ZM233.23 273.964C233.23 274.367 233.295 274.729 233.425 275.05C233.56 275.366 233.761 275.618 234.03 275.804C234.299 275.986 234.632 276.077 235.031 276.077C235.43 276.077 235.774 275.986 236.064 275.804C236.359 275.622 236.552 275.351 236.643 274.991H237.93C237.852 275.451 237.668 275.841 237.377 276.161C237.091 276.482 236.745 276.725 236.337 276.889C235.93 277.05 235.503 277.13 235.057 277.13C234.42 277.13 233.859 276.994 233.373 276.72C232.888 276.443 232.509 276.049 232.236 275.537C231.967 275.026 231.833 274.417 231.833 273.711C231.833 273.013 231.956 272.398 232.203 271.865C232.45 271.328 232.808 270.907 233.276 270.604C233.744 270.301 234.307 270.149 234.966 270.149C235.616 270.149 236.162 270.288 236.604 270.565C237.05 270.842 237.388 271.232 237.618 271.735C237.848 272.233 237.962 272.823 237.962 273.503V273.964H233.23ZM233.23 273.061H236.636C236.636 272.71 236.576 272.391 236.454 272.105C236.333 271.815 236.147 271.588 235.895 271.423C235.648 271.254 235.336 271.169 234.959 271.169C234.574 271.169 234.253 271.263 233.997 271.449C233.742 271.635 233.549 271.874 233.419 272.164C233.293 272.454 233.23 272.753 233.23 273.061ZM239.255 277V270.279H240.588V271.657C240.7 271.328 240.856 271.052 241.056 270.831C241.259 270.606 241.496 270.437 241.764 270.324C242.033 270.207 242.317 270.149 242.616 270.149C242.707 270.149 242.793 270.155 242.876 270.169C242.958 270.177 243.023 270.194 243.071 270.22V271.559C243.014 271.533 242.941 271.516 242.85 271.507C242.763 271.499 242.687 271.492 242.622 271.488C242.328 271.466 242.059 271.481 241.816 271.533C241.574 271.585 241.363 271.672 241.186 271.793C241.012 271.915 240.878 272.073 240.783 272.268C240.692 272.463 240.646 272.693 240.646 272.957V277H239.255ZM247.018 267.601C247.053 267.601 247.155 267.603 247.324 267.607C247.497 267.607 247.705 267.607 247.948 267.607C248.191 267.603 248.438 267.603 248.689 267.607C248.945 267.607 249.172 267.61 249.371 267.614C250.52 267.631 251.454 267.822 252.173 268.186C252.892 268.55 253.419 269.074 253.752 269.759C254.09 270.439 254.259 271.269 254.259 272.248C254.259 273.267 254.08 274.131 253.72 274.842C253.36 275.548 252.81 276.086 252.069 276.454C251.332 276.818 250.398 277 249.267 277H247.018V267.601ZM248.435 268.771V275.83H249.28C249.991 275.83 250.609 275.715 251.133 275.485C251.662 275.251 252.071 274.874 252.361 274.354C252.652 273.83 252.797 273.13 252.797 272.255C252.797 271.397 252.658 270.714 252.381 270.207C252.104 269.696 251.705 269.33 251.185 269.109C250.669 268.884 250.047 268.771 249.319 268.771H248.435ZM257.499 277.13C257.066 277.13 256.68 277.052 256.342 276.896C256.008 276.74 255.746 276.515 255.555 276.22C255.365 275.925 255.269 275.57 255.269 275.154C255.269 274.409 255.534 273.852 256.062 273.483C256.591 273.115 257.434 272.92 258.591 272.898L259.696 272.866V272.378C259.696 271.993 259.581 271.689 259.351 271.468C259.122 271.247 258.769 271.139 258.292 271.143C257.932 271.143 257.612 271.226 257.33 271.39C257.053 271.555 256.871 271.826 256.784 272.203H255.575C255.601 271.757 255.729 271.382 255.958 271.078C256.192 270.771 256.513 270.539 256.92 270.383C257.328 270.227 257.807 270.149 258.357 270.149C258.968 270.149 259.471 270.233 259.865 270.402C260.259 270.567 260.552 270.81 260.742 271.13C260.937 271.451 261.035 271.841 261.035 272.3V277H259.858L259.748 275.765C259.497 276.281 259.178 276.638 258.792 276.837C258.411 277.033 257.98 277.13 257.499 277.13ZM257.934 276.161C258.147 276.161 258.357 276.125 258.565 276.051C258.773 275.973 258.961 275.869 259.13 275.739C259.299 275.605 259.434 275.455 259.533 275.29C259.637 275.126 259.692 274.957 259.696 274.783V273.672L258.786 273.691C258.322 273.696 257.928 273.743 257.603 273.834C257.282 273.925 257.035 274.066 256.862 274.257C256.693 274.448 256.608 274.701 256.608 275.017C256.608 275.377 256.734 275.659 256.985 275.862C257.237 276.062 257.553 276.161 257.934 276.161ZM263.281 279.145C262.869 279.145 262.583 279.115 262.423 279.054C262.267 278.993 262.189 278.963 262.189 278.963V278.066L262.872 278.079C263.132 278.092 263.344 278.077 263.509 278.034C263.678 277.99 263.81 277.93 263.905 277.852C264.005 277.778 264.081 277.698 264.133 277.611C264.185 277.524 264.224 277.444 264.25 277.371L264.458 276.805L261.838 270.279H263.229L265.114 275.245L266.986 270.279H268.351L265.55 277.377C265.359 277.845 265.149 278.207 264.919 278.463C264.694 278.718 264.445 278.896 264.172 278.996C263.899 279.095 263.602 279.145 263.281 279.145Z" fill="white"/>
<path d="M215.53 244.988C215.53 243.74 215.822 242.704 216.406 241.88C216.998 241.056 217.794 240.44 218.794 240.032C219.794 239.616 220.906 239.408 222.13 239.408C223.426 239.408 224.578 239.576 225.586 239.912C226.602 240.248 227.402 240.76 227.986 241.448C228.57 242.136 228.862 243.008 228.862 244.064C228.862 244.92 228.614 245.676 228.118 246.332C227.622 246.98 226.814 247.496 225.694 247.88C226.334 248.056 226.926 248.324 227.47 248.684C228.014 249.044 228.45 249.504 228.778 250.064C229.106 250.624 229.27 251.296 229.27 252.08C229.27 252.928 229.082 253.676 228.706 254.324C228.33 254.972 227.81 255.516 227.146 255.956C226.482 256.396 225.714 256.724 224.842 256.94C223.97 257.156 223.038 257.264 222.046 257.264C220.654 257.256 219.466 257.028 218.482 256.58C217.506 256.124 216.754 255.476 216.226 254.636C215.706 253.796 215.438 252.796 215.422 251.636H218.794C218.962 252.62 219.346 253.332 219.946 253.772C220.546 254.212 221.258 254.432 222.082 254.432C222.802 254.432 223.418 254.328 223.93 254.12C224.45 253.912 224.846 253.624 225.118 253.256C225.398 252.88 225.538 252.452 225.538 251.972C225.538 251.476 225.394 251.048 225.106 250.688C224.826 250.328 224.434 250.048 223.93 249.848C223.426 249.64 222.85 249.528 222.202 249.512L220.546 249.452V246.668L222.034 246.584C222.658 246.56 223.202 246.444 223.666 246.236C224.13 246.028 224.49 245.752 224.746 245.408C225.01 245.056 225.142 244.66 225.142 244.22C225.142 243.796 225.01 243.428 224.746 243.116C224.482 242.804 224.118 242.56 223.654 242.384C223.19 242.208 222.658 242.12 222.058 242.12C221.506 242.12 220.998 242.212 220.534 242.396C220.07 242.58 219.69 242.884 219.394 243.308C219.098 243.724 218.926 244.284 218.878 244.988H215.53ZM231.035 257V253.184H234.875V257H231.035ZM239.964 257V244.004H236.868V242.024C237.86 242.024 238.66 241.932 239.268 241.748C239.884 241.556 240.344 241.284 240.648 240.932C240.952 240.572 241.132 240.144 241.188 239.648H243.516V257H239.964ZM253.962 239.408C255.05 239.408 256.054 239.608 256.974 240.008C257.894 240.4 258.642 240.972 259.218 241.724C259.802 242.468 260.122 243.364 260.178 244.412H256.974C256.766 243.684 256.414 243.132 255.918 242.756C255.422 242.372 254.794 242.18 254.034 242.18C253.202 242.18 252.51 242.416 251.958 242.888C251.406 243.36 251.01 244.02 250.77 244.868C250.53 245.716 250.466 246.704 250.578 247.832C250.842 247.448 251.178 247.124 251.586 246.86C251.994 246.588 252.45 246.38 252.954 246.236C253.458 246.092 253.982 246.02 254.526 246.02C255.702 246.02 256.73 246.24 257.61 246.68C258.49 247.112 259.178 247.728 259.674 248.528C260.17 249.328 260.418 250.264 260.418 251.336C260.418 252.472 260.138 253.488 259.578 254.384C259.026 255.272 258.254 255.976 257.262 256.496C256.27 257.008 255.122 257.264 253.818 257.264C252.346 257.264 251.074 256.908 250.002 256.196C248.93 255.484 248.106 254.484 247.53 253.196C246.962 251.908 246.678 250.396 246.678 248.66C246.678 246.756 246.966 245.112 247.542 243.728C248.126 242.344 248.962 241.28 250.05 240.536C251.138 239.784 252.442 239.408 253.962 239.408ZM253.71 248.636C253.214 248.636 252.734 248.748 252.27 248.972C251.814 249.188 251.438 249.468 251.142 249.812C250.854 250.148 250.71 250.492 250.71 250.844C250.702 251.62 250.822 252.288 251.07 252.848C251.326 253.4 251.678 253.828 252.126 254.132C252.582 254.428 253.106 254.576 253.698 254.576C254.258 254.576 254.762 254.448 255.21 254.192C255.666 253.928 256.03 253.564 256.302 253.1C256.574 252.636 256.71 252.104 256.71 251.504C256.71 250.864 256.578 250.332 256.314 249.908C256.05 249.484 255.69 249.168 255.234 248.96C254.786 248.744 254.278 248.636 253.71 248.636ZM261.642 239.648H274.602V242.516C274.05 243.204 273.494 244.016 272.934 244.952C272.382 245.888 271.85 246.888 271.338 247.952C270.834 249.016 270.378 250.092 269.97 251.18C269.562 252.268 269.234 253.312 268.986 254.312C268.738 255.312 268.602 256.208 268.578 257H264.798C264.862 256.296 265.022 255.408 265.278 254.336C265.534 253.256 265.906 252.064 266.394 250.76C266.89 249.448 267.51 248.088 268.254 246.68C269.006 245.272 269.902 243.884 270.942 242.516H261.642V239.648Z" fill="white"/>
</svg>
